HIERARCHY
ROOT Hips
{
  OFFSET 1.73907 43.2358 0.0522707
  CHANNELS 6 Xposition Yposition Zposition Zrotation Xrotation Yrotation
  JOINT Bip01_Pelvis
  {
    OFFSET 0 0 0
    CHANNELS 6 Xposition Yposition Zposition Zrotation Xrotation Yrotation
    JOINT BN_Tail_01
    {
      OFFSET -2.28979 -2.39917 0
      CHANNELS 6 Xposition Yposition Zposition Zrotation Xrotation Yrotation
      JOINT BN_Tail_02
      {
        OFFSET 9.67405 0 0
        CHANNELS 6 Xposition Yposition Zposition Zrotation Xrotation Yrotation
        JOINT BN_Tail_03
        {
          OFFSET 10.5192 0 -1.14441e-005
          CHANNELS 6 Xposition Yposition Zposition Zrotation Xrotation Yrotation
          JOINT BN_Tail_04
          {
            OFFSET 8.16754 0 0
            CHANNELS 6 Xposition Yposition Zposition Zrotation Xrotation Yrotation
            End Site
            {
              OFFSET 0 0 0
            }
          }
        }
      }
    }
    JOINT Bip01_Spine
    {
      OFFSET 2.25317 -0.00479889 0
      CHANNELS 6 Xposition Yposition Zposition Zrotation Xrotation Yrotation
      JOINT Bip01_R_Thigh
      {
        OFFSET -2.32652 -0.461891 -2.25534
        CHANNELS 6 Xposition Yposition Zposition Zrotation Xrotation Yrotation
        JOINT Bip01_R_Calf
        {
          OFFSET 9.47902 0 0
          CHANNELS 6 Xposition Yposition Zposition Zrotation Xrotation Yrotation
          JOINT Bip01_R_Foot
          {
            OFFSET 8.42616 0 0
            CHANNELS 6 Xposition Yposition Zposition Zrotation Xrotation Yrotation
            JOINT Bip01_R_Toe1
            {
              OFFSET 1.4015 3.97627 -1.33795
              CHANNELS 6 Xposition Yposition Zposition Zrotation Xrotation Yrotation
              JOINT Bip01_R_Toe11
              {
                OFFSET 2.94553 0 0
                CHANNELS 6 Xposition Yposition Zposition Zrotation Xrotation Yrotation
                JOINT Bip01_R_Toe1Nub
                {
                  OFFSET 2.52656 0 0
                  CHANNELS 6 Xposition Yposition Zposition Zrotation Xrotation Yrotation
                  End Site
                  {
                    OFFSET 0 0 0
                  }
                }
              }
            }
            JOINT Bip01_R_Toe0
            {
              OFFSET 2.09729 6.93129 0.0277901
              CHANNELS 6 Xposition Yposition Zposition Zrotation Xrotation Yrotation
              JOINT Bip01_R_Toe01
              {
                OFFSET 3.0714 0 0
                CHANNELS 6 Xposition Yposition Zposition Zrotation Xrotation Yrotation
                JOINT Bip01_R_Toe0Nub
                {
                  OFFSET 3.37999 0 0
                  CHANNELS 6 Xposition Yposition Zposition Zrotation Xrotation Yrotation
                  End Site
                  {
                    OFFSET 0 0 0
                  }
                }
              }
            }
          }
        }
      }
      JOINT Bip01_L_Thigh
      {
        OFFSET -2.07803 -0.462101 2.48614
        CHANNELS 6 Xposition Yposition Zposition Zrotation Xrotation Yrotation
        JOINT Bip01_L_Calf
        {
          OFFSET 9.47902 0 0
          CHANNELS 6 Xposition Yposition Zposition Zrotation Xrotation Yrotation
          JOINT Bip01_L_Foot
          {
            OFFSET 8.42617 0 0
            CHANNELS 6 Xposition Yposition Zposition Zrotation Xrotation Yrotation
            JOINT Bip01_L_Toe1
            {
              OFFSET 1.40151 3.97627 1.33796
              CHANNELS 6 Xposition Yposition Zposition Zrotation Xrotation Yrotation
              JOINT Bip01_L_Toe11
              {
                OFFSET 2.94554 0 0
                CHANNELS 6 Xposition Yposition Zposition Zrotation Xrotation Yrotation
                JOINT Bip01_L_Toe1Nub
                {
                  OFFSET 2.52656 0 0
                  CHANNELS 6 Xposition Yposition Zposition Zrotation Xrotation Yrotation
                  End Site
                  {
                    OFFSET 0 0 0
                  }
                }
              }
            }
            JOINT Bip01_L_Toe0
            {
              OFFSET 2.0973 6.93128 -0.0277834
              CHANNELS 6 Xposition Yposition Zposition Zrotation Xrotation Yrotation
              JOINT Bip01_L_Toe01
              {
                OFFSET 3.07141 0 0
                CHANNELS 6 Xposition Yposition Zposition Zrotation Xrotation Yrotation
                JOINT Bip01_L_Toe0Nub
                {
                  OFFSET 3.37999 0 0
                  CHANNELS 6 Xposition Yposition Zposition Zrotation Xrotation Yrotation
                  End Site
                  {
                    OFFSET 0 0 0
                  }
                }
              }
            }
          }
        }
      }
      JOINT Bip01_Spine1
      {
        OFFSET 6.17162 -0.00484467 0
        CHANNELS 6 Xposition Yposition Zposition Zrotation Xrotation Yrotation
        JOINT BN_R_Clavicle_01
        {
          OFFSET 6.15897 -2.02444 -2.78435
          CHANNELS 6 Xposition Yposition Zposition Zrotation Xrotation Yrotation
          JOINT BN_R_UpperArm_01
          {
            OFFSET 3.43915 0 0
            CHANNELS 6 Xposition Yposition Zposition Zrotation Xrotation Yrotation
            JOINT BN_R__Forearm_01
            {
              OFFSET 10.2529 0 0
              CHANNELS 6 Xposition Yposition Zposition Zrotation Xrotation Yrotation
              JOINT BN_R_Hand_01
              {
                OFFSET 16.2051 0 0
                CHANNELS 6 Xposition Yposition Zposition Zrotation Xrotation Yrotation
                JOINT BN_R_Finger_07
                {
                  OFFSET 2.2539 2.19923 0.192043
                  CHANNELS 6 Xposition Yposition Zposition Zrotation Xrotation Yrotation
                  End Site
                  {
                    OFFSET 0 0 0
                  }
                }
                JOINT BN_R_Finger_01
                {
                  OFFSET 2.17806 -1.99631 -0.219296
                  CHANNELS 6 Xposition Yposition Zposition Zrotation Xrotation Yrotation
                  End Site
                  {
                    OFFSET 0 0 0
                  }
                }
                JOINT BN_R_Finger_05
                {
                  OFFSET 3.30715 1.42802 0.17391
                  CHANNELS 6 Xposition Yposition Zposition Zrotation Xrotation Yrotation
                  End Site
                  {
                    OFFSET 0 0 0
                  }
                }
                JOINT BN_R_Finger_03
                {
                  OFFSET 3.93641 -0.769831 0.580946
                  CHANNELS 6 Xposition Yposition Zposition Zrotation Xrotation Yrotation
                  End Site
                  {
                    OFFSET 0 0 0
                  }
                }
              }
            }
          }
        }
        JOINT BN_L_Clavicle_01
        {
          OFFSET 6.15897 -2.02445 2.78458
          CHANNELS 6 Xposition Yposition Zposition Zrotation Xrotation Yrotation
          JOINT BN_L_UpperArm_01
          {
            OFFSET 3.43915 0 0
            CHANNELS 6 Xposition Yposition Zposition Zrotation Xrotation Yrotation
            JOINT BN_L__Forearm_01
            {
              OFFSET 10.2529 0 0
              CHANNELS 6 Xposition Yposition Zposition Zrotation Xrotation Yrotation
              JOINT BN_L_Hand_01
              {
                OFFSET 16.2051 0 0
                CHANNELS 6 Xposition Yposition Zposition Zrotation Xrotation Yrotation
                JOINT BN_L_Finger_05
                {
                  OFFSET 3.30715 -1.42803 0.173891
                  CHANNELS 6 Xposition Yposition Zposition Zrotation Xrotation Yrotation
                  End Site
                  {
                    OFFSET 0 0 0
                  }
                }
                JOINT BN_L_Finger_07
                {
                  OFFSET 2.2539 -2.19925 0.19203
                  CHANNELS 6 Xposition Yposition Zposition Zrotation Xrotation Yrotation
                  End Site
                  {
                    OFFSET 0 0 0
                  }
                }
                JOINT BN_L_Finger_01
                {
                  OFFSET 2.17804 1.99629 -0.219303
                  CHANNELS 6 Xposition Yposition Zposition Zrotation Xrotation Yrotation
                  End Site
                  {
                    OFFSET 0 0 0
                  }
                }
                JOINT BN_L_Finger_03
                {
                  OFFSET 3.9364 0.769825 0.580943
                  CHANNELS 6 Xposition Yposition Zposition Zrotation Xrotation Yrotation
                  End Site
                  {
                    OFFSET 0 0 0
                  }
                }
              }
            }
          }
        }
        JOINT Bip01_Neck
        {
          OFFSET 7.02381 -0.81237 0
          CHANNELS 6 Xposition Yposition Zposition Zrotation Xrotation Yrotation
          JOINT Bip01_Head
          {
            OFFSET 1.54249 1.14441e-005 0
            CHANNELS 6 Xposition Yposition Zposition Zrotation Xrotation Yrotation
            JOINT BN_Mouth_01
            {
              OFFSET 2.32836 0.166542 0
              CHANNELS 6 Xposition Yposition Zposition Zrotation Xrotation Yrotation
              End Site
              {
                OFFSET 0 0 0
              }
            }
            JOINT BN_R_Ear_01
            {
              OFFSET 3.4208 -0.773972 -2.25959
              CHANNELS 6 Xposition Yposition Zposition Zrotation Xrotation Yrotation
              End Site
              {
                OFFSET 0 0 0
              }
            }
            JOINT BN_L_Ear_01
            {
              OFFSET 3.4208 -0.773976 2.25975
              CHANNELS 6 Xposition Yposition Zposition Zrotation Xrotation Yrotation
              End Site
              {
                OFFSET 0 0 0
              }
            }
            JOINT Bip01_HeadNub
            {
              OFFSET 6.74789 0 0
              CHANNELS 6 Xposition Yposition Zposition Zrotation Xrotation Yrotation
              End Site
              {
                OFFSET 0 0 0
              }
            }
          }
        }
      }
    }
  }
}
MOTION
Frames:	4
Frame Time:	0.0333333
3.43693 46.1799 0.094427 53.6268 -89.1131 102.247 0 0 0 -89.9965 -3.50835e-015 -90 -2.28979 -2.39919 5.55112e-017 177.384 83.8782 55.5924 9.67405 2.38419e-007 -1.42109e-014 11.4863 0.995905 -10.5293 10.5192 -1.11022e-016 -3.8147e-006 16.5777 -0.474266 -11.3118 8.16753 -8.88178e-016 -3.8147e-006 19.9373 1.87746 11.356 2.25378 -0.004879 0 -4.69746 4.85993 -3.04149 -2.36831 -0.379715 -2.22721 21.2898 -16.5078 -169.883 9.47902 7.10543e-015 0 -35.4872 -2.06153e-007 5.88253e-007 8.42616 3.8147e-006 -1.77636e-015 -27.114 -8.17565 -12.5263 1.4015 3.97629 -1.33794 85.5365 -41.2629 29.2009 2.94553 -3.55272e-015 -3.8147e-006 -18.3475 3.8758e-006 1.07659e-005 2.52656 -3.8147e-006 3.8147e-006 1.62603e-007 9.73913e-006 5.03077e-007 2.09729 6.9313 0.027813 65.2585 3.91828e-006 -8.95936e-006 3.07141 -3.8147e-006 0 -65.3707 -3.49491e-007 -2.3154e-007 3.38 -1.90735e-006 2.38419e-007 2.9327e-007 -8.21445e-008 -2.28118e-008 -2.11702 0.0225925 2.49661 27.6289 8.92371 -164.573 9.47902 7.6294e-006 -1.90735e-006 -40.8908 1.12046e-006 1.43129e-005 8.42616 -7.62939e-006 -0.000864983 -39.4291 2.3715 4.7632 1.40153 3.9764 1.33755 71.6153 45.8602 -19.575 2.94553 3.8147e-006 -1.90735e-006 -20.4088 -0.00124682 0.00688081 2.52656 -7.10543e-015 -1.90735e-006 -179.961 0.00010361 0.00520867 2.09717 6.93133 -0.0284615 54.3343 6.87379e-006 6.36993e-006 3.0714 3.8147e-006 1.77636e-015 -76.4205 -0.000994216 0.0125687 3.37998 3.55271e-015 0.000670433 179.963 0.00550134 0.0113585 6.17171 -0.00486946 1.19209e-007 -8.01026 1.68411 -7.18673 6.15899 -2.02445 -2.78435 -178.019 9.66756 77.6449 3.43915 7.6294e-006 7.6294e-006 78.7843 65.3126 -62.1786 10.2529 3.8147e-006 -3.8147e-006 -63.5646 1.35903 0.854436 16.2051 3.8147e-006 3.8147e-006 28.3297 0.208275 17.6917 2.25392 2.19924 0.19203 68.5871 0.527052 12.2934 2.17805 -1.99631 -0.219317 -71.0444 -0.183729 7.61767 3.30715 1.42802 0.173893 22.0312 1.23166 14.5521 3.9364 -0.769833 0.580928 -1.22238 0.405737 39.3824 6.15899 -2.02445 2.78458 1.29162 6.64551 -102.246 3.43914 -3.8147e-006 3.8147e-006 -93.1716 -78.3153 -75.5175 10.2529 -3.8147e-006 -1.90735e-006 67.8409 -5.28637 6.96414 16.2051 -1.90735e-006 7.10543e-015 -25.4503 -4.51988 22.7683 3.30714 -1.42803 0.173882 -22.0449 -1.13374 0.552346 2.25392 -2.19924 0.192026 -68.6228 -0.533589 8.29406 2.17806 1.9963 -0.21931 71.0447 0.182698 6.61525 3.9364 0.76983 0.580934 0.555006 -2.50247 19.3748 7.02382 -0.812382 4.76837e-007 10.998 -8.90937e-007 1.05486e-005 1.54248 7.6294e-006 -8.88179e-016 -15.3807 -7.64955 7.65986 2.10594 -0.356749 0.0332333 -69.5195 -0.0116272 -179.983 3.4208 -0.773968 -2.25959 154.422 1.41886 177.05 3.42081 -0.773976 2.25975 -25.7806 1.4477 -12.7099 6.74791 -3.8147e-006 1.11022e-016 2.32843e-007 -3.88074e-008 2.48377e-008 
3.34072 46.2331 0.148001 59.7408 -88.9706 107.475 0 0 0 -89.9965 -3.50835e-015 -90 -2.28979 -2.39919 -2.33147e-015 176.535 83.7436 56.1518 9.67405 2.38419e-007 7.10543e-015 9.97984 0.398142 -8.8096 10.5192 6.66134e-016 -3.8147e-006 17.373 1.22906 -12.4891 8.16753 4.44089e-015 -3.8147e-006 20.6484 1.68785 9.45382 2.25378 -0.004879 8.32667e-017 -4.23145 4.86834 -2.94537 -2.36652 -0.362246 -2.23294 21.4007 -16.4861 -169.298 9.47902 0 -3.55271e-015 -33.7502 -4.82032e-007 1.02643e-006 8.42616 3.8147e-006 1.77636e-015 -28.0123 -7.0285 -12.3408 1.4015 3.97629 -1.33794 84.886 -41.5344 28.7706 2.94553 7.10543e-015 -3.8147e-006 -18.0464 -0.0104202 0.0320047 2.52657 -3.8147e-006 3.8147e-006 1.62603e-007 9.73913e-006 5.03077e-007 2.09729 6.9313 0.027813 64.6966 4.02642e-006 -8.93778e-006 3.07141 -3.8147e-006 4.44089e-016 -65.1099 -0.0218582 0.0101412 3.38 -1.90735e-006 2.38419e-007 2.9327e-007 -8.21445e-008 -2.28118e-008 -2.1227 0.0408389 2.49181 25.4932 8.19511 -164.265 9.47902 7.6294e-006 -1.90735e-006 -44.1486 3.10688e-007 1.43586e-005 8.42616 -7.62939e-006 -0.000864983 -39.5111 2.39584 4.56093 1.40153 3.9764 1.33755 71.8833 45.7935 -19.7672 2.94553 3.8147e-006 -1.90735e-006 -20.0995 0.00826 -0.0189901 2.52656 -1.06581e-014 -1.90735e-006 -179.961 0.00010361 0.00520867 2.09717 6.93133 -0.0284615 53.7739 -1.15851e-006 5.07324e-007 3.0714 3.8147e-006 -5.32907e-015 -76.142 0.0128596 0.00917063 3.37998 -1.15818e-012 0.000670433 179.963 0.00550134 0.0113585 6.17171 -0.00486946 1.19209e-007 -5.68569 1.38859 -7.38489 6.15899 -2.02445 -2.78435 -178.013 9.68704 77.6373 3.43915 7.62939e-006 7.6294e-006 73.1533 65.5996 -67.3803 10.2529 3.8147e-006 -3.8147e-006 -58.6756 1.16307 0.97232 16.2051 3.8147e-006 3.8147e-006 28.7572 -0.622579 17.2896 2.25392 2.19924 0.19203 68.57 0.519937 14.6218 2.17805 -1.99631 -0.219317 -71.0421 -0.183042 7.55926 3.30715 1.42802 0.173893 21.8661 1.24839 16.1302 3.9364 -0.769833 0.580928 -1.17249 0.438449 36.1899 6.15899 -2.02445 2.78458 1.25037 6.43992 -102.272 3.43914 -3.8147e-006 3.8147e-006 -68.8426 -75.0289 -62.4415 10.2529 -3.8147e-006 -1.90735e-006 63.9447 -4.76634 7.01374 16.2051 -1.90735e-006 3.55271e-015 -26.1908 -3.2749 20.3042 3.30714 -1.42803 0.173882 -22.0016 -1.14024 3.8756 2.25392 -2.19924 0.192026 -68.5642 -0.530024 11.494 2.17806 1.9963 -0.21931 71.0454 0.183502 6.84515 3.9364 0.76983 0.580934 0.538808 -2.49798 18.4803 7.02382 -0.812382 4.76291e-007 10.998 -9.14773e-007 1.05413e-005 1.54248 7.6294e-006 5.32907e-015 -18.141 -7.74083 7.31873 2.10594 -0.356749 0.0332333 -70.4898 0.0219115 179.841 3.4208 -0.773968 -2.25959 153.27 1.55697 175.766 3.42081 -0.773976 2.25975 -26.7253 1.86646 -11.4763 6.74791 -3.8147e-006 1.11022e-015 2.32843e-007 -3.88074e-008 2.48377e-008 
3.06969 46.4179 0.211097 68.2668 -88.6206 115.039 0 0 0 -89.9965 -3.50835e-015 -90 -2.28979 -2.39919 -4.57967e-015 175.856 83.6664 56.1219 9.67405 2.38419e-007 7.10543e-015 8.13117 -0.350334 -6.65081 10.5192 2.22045e-015 -3.8147e-006 17.7394 3.08553 -13.2619 8.16753 2.66454e-015 -3.8147e-006 21.0182 1.05464 7.19375 2.25378 -0.004879 5.55112e-017 -3.15922 4.8978 -2.68751 -2.35889 -0.321366 -2.24678 21.3815 -16.527 -168.842 9.47902 -7.10543e-015 -1.77636e-015 -30.7257 -7.59783e-008 5.23313e-007 8.42616 3.8147e-006 -1.77636e-015 -29.0941 -6.36664 -12.1067 1.4015 3.97629 -1.33794 83.1416 -42.2315 27.6059 2.94553 0 -3.8147e-006 -17.328 3.99522e-006 1.07731e-005 2.52657 -3.8147e-006 3.8147e-006 1.62603e-007 9.73913e-006 5.03077e-007 2.09729 6.9313 0.027813 63.2228 4.27062e-006 -8.83941e-006 3.07141 -3.8147e-006 4.44089e-016 -64.3514 -3.87839e-007 -2.44815e-007 3.38 -1.90735e-006 2.38419e-007 2.9327e-007 -8.21445e-008 -2.28118e-008 -2.13711 0.0840961 2.47876 21.2158 6.89913 -164.017 9.47902 7.6294e-006 -1.90735e-006 -48.0018 6.78549e-006 7.62954e-006 8.42616 -7.62939e-006 -0.000864983 -40.8584 2.12951 3.93638 1.40153 3.9764 1.33755 72.5958 45.6121 -20.2772 2.94553 3.8147e-006 -1.90735e-006 -19.3649 0.00801602 -0.0190945 2.52656 -3.55271e-014 -1.90735e-006 -179.961 0.00010361 0.00520867 2.09717 6.93133 -0.0284615 52.2994 -9.68014e-007 4.61967e-007 3.0714 3.8147e-006 -2.66454e-014 -75.4004 0.0132414 0.00893438 3.37998 -3.76588e-012 0.000670433 179.963 0.00550134 0.0113585 6.17171 -0.00486946 1.19208e-007 -1.53505 0.782613 -7.13967 6.15899 -2.02445 -2.78435 -177.99 9.77877 77.6181 3.43915 7.62939e-006 7.6294e-006 69.1231 66.7562 -76.447 10.2529 3.8147e-006 -3.8147e-006 -51.2068 0.709688 1.18162 16.2051 3.8147e-006 3.8147e-006 29.5683 -1.96355 18.0843 2.25392 2.19924 0.192031 68.5557 0.507501 17.7534 2.17805 -1.99631 -0.219318 -71.0398 -0.18237 7.502 3.30715 1.42802 0.173894 21.7038 1.26042 17.6778 3.9364 -0.769833 0.580927 -1.09837 0.488398 31.1489 6.15899 -2.02445 2.78458 1.1384 5.88666 -102.343 3.43914 -3.8147e-006 3.8147e-006 -44.9628 -71.191 -52.6989 10.2529 -3.8147e-006 -1.90735e-006 57.7643 -4.06036 7.18865 16.2051 -1.90735e-006 7.10543e-015 -27.0971 -1.12817 18.931 3.30714 -1.42803 0.173882 -21.8472 -1.1745 8.82634 2.25392 -2.19924 0.192026 -68.5143 -0.518486 16.2404 2.17806 1.9963 -0.219309 71.0305 0.180587 6.20961 3.9364 0.76983 0.580934 0.522994 -2.49333 17.6031 7.02382 -0.812382 4.74812e-007 10.998 -9.38415e-007 1.05214e-005 1.54248 7.6294e-006 1.68754e-014 -24.2327 -7.94069 6.38011 2.10594 -0.356749 0.0332333 -71.4411 0.0576772 179.669 3.4208 -0.773968 -2.25959 152.145 1.71716 174.509 3.42081 -0.773976 2.25975 -27.6606 2.25739 -10.2597 6.74791 -3.8147e-006 1.55431e-015 2.32843e-007 -3.88074e-008 2.48377e-008 
2.68892 46.6966 0.276195 74.7316 -88.0907 120.56 0 0 0 -89.9965 -3.50835e-015 -90 -2.28979 -2.39919 -1.12133e-014 175.144 83.7034 55.6851 9.67405 2.38419e-007 0 6.09752 -1.20938 -4.14983 10.5192 -1.77636e-015 -3.8147e-006 17.7223 5.03039 -13.6506 8.16753 3.55271e-015 -3.8147e-006 20.8978 0.202657 4.64737 2.25378 -0.004879 -2.77556e-017 -1.67997 4.93957 -2.28722 -2.34603 -0.265217 -2.26794 21.2187 -16.5661 -168.524 9.47902 -7.10543e-015 1.77636e-015 -26.8515 -4.44149e-006 9.394e-006 8.42616 3.8147e-006 -3.55271e-015 -30.3188 -6.08974 -11.8741 1.4015 3.97629 -1.33794 80.6696 -43.1467 25.9299 2.94553 -2.4869e-014 -3.8147e-006 -16.3105 6.56897e-006 2.31615e-006 2.52657 -3.8147e-006 3.8147e-006 1.62603e-007 9.73913e-006 5.03077e-007 2.09729 6.9313 0.027813 61.1873 4.59049e-006 -8.677e-006 3.07141 -3.8147e-006 0 -63.3283 -3.84806e-007 -2.49214e-007 3.38 -1.90735e-006 2.38419e-007 2.9327e-007 -8.21445e-008 -2.28118e-008 -2.15651 0.143872 2.45879 15.6134 5.27921 -163.982 9.47902 7.6294e-006 -1.90735e-006 -51.9451 -1.65673e-006 1.42143e-005 8.42616 -7.62939e-006 -0.000864983 -43.0674 1.69004 2.97942 1.40153 3.9764 1.33755 73.5665 45.356 -20.9694 2.94553 3.8147e-006 -1.90735e-006 -18.3588 0.00334275 -0.00616355 2.52656 -6.39488e-014 -1.90735e-006 -179.961 0.00010361 0.00520867 2.09717 6.93133 -0.0284615 50.2655 -7.08303e-007 4.02246e-007 3.0714 3.8147e-006 -3.90799e-014 -74.3972 0.00681706 0.010538 3.37998 -7.25819e-012 0.000670433 179.963 0.00550134 0.0113585 6.17171 -0.00486946 1.19207e-007 3.61118 0.0443676 -6.58996 6.15899 -2.02445 -2.78435 -177.943 9.96752 77.581 3.43915 7.62939e-006 7.6294e-006 66.9892 67.6736 -88.6152 10.2529 3.8147e-006 -3.8147e-006 -42.2978 0.082471 1.36683 16.2051 3.8147e-006 3.8147e-006 30.4705 -3.4723 19.41 2.25392 2.19924 0.192031 68.5419 0.49415 20.916 2.17805 -1.99631 -0.219318 -71.006 -0.177745 6.60395 3.30715 1.42802 0.173894 21.5396 1.26809 19.2407 3.9364 -0.769833 0.580927 -0.991683 0.507207 24.8042 6.15899 -2.02445 2.78458 0.95944 5.04186 -102.398 3.43914 -3.8147e-006 3.8147e-006 -22.1276 -67.0268 -45.5846 10.2529 -3.8147e-006 -1.90735e-006 50.1784 -3.17262 7.32474 16.2051 -1.90735e-006 0 -27.9276 1.47131 18.1469 3.30714 -1.42803 0.173881 -21.6859 -1.19693 14.3158 2.25392 -2.19924 0.192025 -68.4756 -0.500943 21.5395 2.17806 1.9963 -0.219309 71.0154 0.177814 5.56776 3.9364 0.76983 0.580935 0.5071 -2.48838 16.7172 7.02382 -0.812382 4.72753e-007 10.998 -9.48805e-007 1.04937e-005 1.54248 7.6294e-006 3.01981e-014 -32.2472 -8.07446 5.11444 2.10594 -0.356749 0.0332333 -73.1696 0.0510693 179.518 3.4208 -0.773968 -2.25959 150.949 1.7906 172.897 3.42081 -0.773976 2.25975 -28.6748 2.72815 -8.62337 6.74791 -3.8147e-006 1.77636e-015 2.32843e-007 -3.88074e-008 2.48377e-008 
